<svg viewBox="0 0 512.001 512.001" xmlns="http://www.w3.org/2000/svg"><g fill="#a6c1ee"><path d="m479.57 124.783-219.315-123.666c-2.642-1.49-5.872-1.49-8.514 0l-219.314 123.666c-2.725 1.537-4.41 4.423-4.41 7.55v247.332c0 3.128 1.685 6.014 4.41 7.55l92.541 52.181c1.345.759 2.807 1.12 4.249 1.12 3.027 0 5.966-1.588 7.558-4.412 2.351-4.17.877-9.456-3.294-11.806l-88.13-49.694v-227.433l201.98 113.891v227.43l-81.436-45.92c-4.17-2.351-9.456-.877-11.808 3.294-2.351 4.17-.877 9.456 3.294 11.808l94.362 53.209c1.321.745 2.79 1.118 4.258 1.118s2.937-.372 4.258-1.118l219.315-123.666c2.725-1.537 4.41-4.423 4.41-7.55v-247.333c-.003-3.129-1.689-6.015-4.414-7.551zm-12.925 249.82-201.979 113.89v-227.43l131.773-74.303c4.17-2.352 5.644-7.638 3.293-11.808-2.352-4.171-7.639-5.646-11.806-3.293l-131.927 74.39-201.668-113.715 201.668-113.716 201.668 113.715-39.393 22.213c-4.17 2.351-5.644 7.637-3.294 11.807 2.352 4.17 7.636 5.642 11.808 3.294l39.857-22.476z"/><path d="m79.321 188.814c-4.787 0-8.668 3.881-8.668 8.668v35.32c0 4.787 3.881 8.668 8.668 8.668s8.668-3.881 8.668-8.668v-35.32c0-4.787-3.881-8.668-8.668-8.668z"/><path d="m79.321 255.335c-4.787 0-8.668 3.881-8.668 8.668v86.544c0 4.787 3.881 8.668 8.668 8.668s8.668-3.881 8.668-8.668v-86.544c0-4.787-3.881-8.668-8.668-8.668z"/><path d="m111.38 206.889c-4.787 0-8.668 3.881-8.668 8.668v124.173c0 4.787 3.881 8.668 8.668 8.668s8.668-3.881 8.668-8.668v-124.173c0-4.787-3.881-8.668-8.668-8.668z"/><path d="m207.533 261.112c-4.787 0-8.668 3.881-8.668 8.668v153.055c0 4.787 3.881 8.668 8.668 8.668s8.668-3.881 8.668-8.668v-153.055c-.001-4.787-3.881-8.668-8.668-8.668z"/><path d="m143.427 224.964c-4.787 0-8.668 3.881-8.668 8.668v124.173c0 4.787 3.881 8.668 8.668 8.668s8.668-3.881 8.668-8.668v-124.174c0-4.786-3.881-8.667-8.668-8.667z"/><path d="m175.486 243.039c-4.787 0-8.668 3.881-8.668 8.668v124.173c0 4.787 3.881 8.668 8.668 8.668s8.668-3.881 8.668-8.668v-124.174c-.001-4.786-3.881-8.667-8.668-8.667z"/><path d="m119.874 366.933c-.104-.555-.277-1.098-.485-1.63-.22-.52-.485-1.018-.797-1.491-.324-.474-.682-.925-1.086-1.318-.393-.405-.844-.763-1.318-1.075-.462-.312-.971-.589-1.491-.797-.52-.22-1.075-.393-1.618-.497-1.121-.231-2.277-.231-3.398 0-.543.104-1.098.277-1.618.497-.52.208-1.029.485-1.491.797-.474.312-.925.67-1.317 1.075-.404.393-.763.844-1.086 1.318-.312.474-.578.971-.797 1.491-.208.532-.381 1.075-.485 1.63-.116.555-.173 1.121-.173 1.687s.058 1.133.173 1.699c.104.555.277 1.098.485 1.618.22.52.485 1.029.797 1.502.324.474.682.913 1.086 1.318.393.393.844.751 1.317 1.075.462.312.971.578 1.491.797.52.208 1.075.381 1.618.497.566.104 1.133.162 1.699.162s1.133-.058 1.699-.162c.543-.116 1.098-.289 1.618-.497.52-.22 1.029-.485 1.491-.797.474-.324.925-.682 1.318-1.075.404-.404.763-.844 1.086-1.318.312-.474.578-.982.797-1.502.208-.52.381-1.063.485-1.618.116-.566.173-1.133.173-1.699s-.057-1.133-.173-1.687z"/><path d="m151.921 385.006c-.104-.554-.277-1.098-.485-1.63-.22-.52-.485-1.017-.797-1.491-.324-.474-.682-.913-1.086-1.318-.393-.404-.844-.763-1.317-1.075-.462-.312-.971-.589-1.491-.797-.52-.22-1.075-.381-1.618-.497-1.121-.22-2.277-.22-3.398 0-.543.116-1.098.277-1.618.497-.52.208-1.029.485-1.491.797-.474.312-.925.67-1.318 1.075-.404.405-.763.844-1.086 1.318-.312.474-.578.971-.797 1.491-.208.532-.381 1.075-.485 1.63-.116.555-.173 1.121-.173 1.687 0 2.288.925 4.519 2.542 6.137.393.393.844.751 1.318 1.075.462.312.971.578 1.491.797.52.208 1.075.381 1.618.485.566.116 1.133.173 1.699.173 2.288 0 4.519-.925 6.125-2.531 1.618-1.618 2.542-3.848 2.542-6.137-.001-.565-.059-1.131-.175-1.686z"/><path d="m183.98 403.081c-.104-.555-.277-1.098-.485-1.63-.22-.52-.485-1.017-.797-1.491-.324-.474-.682-.924-1.086-1.318-.393-.404-.844-.763-1.317-1.075-.462-.312-.971-.589-1.491-.797-.52-.22-1.075-.381-1.618-.497-1.121-.22-2.277-.22-3.386 0-.555.116-1.109.277-1.63.497-.52.208-1.029.485-1.491.797-.474.312-.925.67-1.317 1.075-.405.393-.763.844-1.086 1.318-.312.474-.578.971-.797 1.491-.208.532-.381 1.075-.485 1.63-.116.555-.173 1.121-.173 1.687s.058 1.134.173 1.699c.104.555.277 1.098.485 1.618.22.52.485 1.029.797 1.502.324.474.682.913 1.086 1.318.393.393.844.763 1.318 1.075.462.312.971.578 1.491.797.52.22 1.075.381 1.63.497.555.104 1.121.162 1.687.162s1.133-.058 1.699-.162c.543-.116 1.098-.277 1.618-.497s1.029-.485 1.491-.797c.474-.312.924-.682 1.317-1.075.404-.404.763-.844 1.086-1.318.312-.474.578-.982.797-1.502.208-.52.381-1.063.485-1.618.116-.566.173-1.133.173-1.699s-.058-1.132-.174-1.687z"/></g></svg>
