<svg fill="none" viewBox="0 0 24 24" xmlns="http://www.w3.org/2000/svg"><path d="m2 12c0-4.71405 0-7.07107 1.46447-8.53553 1.46446-1.46447 3.82148-1.46447 8.53553-1.46447 4.714 0 7.0711 0 8.5355 1.46447 1.4645 1.46446 1.4645 3.82148 1.4645 8.53553 0 4.714 0 7.0711-1.4645 8.5355-1.4644 1.4645-3.8215 1.4645-8.5355 1.4645-4.71405 0-7.07107 0-8.53553-1.4645-1.46447-1.4644-1.46447-3.8215-1.46447-8.5355z" fill="#a6c1ee"/><g fill="#1c274c"><path d="m13.4881 6.44591c.4001.1072.6375.51846.5303.91856l-2.5882 9.65923c-.1072.4001-.5185.6376-.9186.5304-.4001-.1073-.6375-.5185-.53029-.9186l2.58819-9.65926c.1072-.4001.5185-.63754.9186-.53033z"/><path d="m14.9697 8.46967c.2929-.29289.7677-.29289 1.0606 0l.2084.20834c.6353.63529 1.1651 1.16507 1.5291 1.64219.3843.5036.6538 1.0357.6538 1.6798s-.2695 1.1762-.6538 1.6798c-.364.4771-.8938 1.0069-1.5291 1.6422l-.2084.2083c-.2929.2929-.7677.2929-1.0606 0s-.2929-.7677 0-1.0606l.1715-.1716c.6817-.6817 1.1385-1.1407 1.4341-1.5282.2824-.3701.3463-.5856.3463-.7699s-.0639-.3998-.3463-.7699c-.2956-.3875-.7524-.8465-1.4341-1.52819l-.1715-.17158c-.2929-.29289-.2929-.76776 0-1.06066z"/><path d="m7.96986 8.46967c.29289-.29289.76776-.29289 1.06066 0 .29289.2929.29289.76777 0 1.06066l-.17158.17158c-.68165.68169-1.13842 1.14069-1.43406 1.52819-.28243.3701-.34627.5856-.34627.7699s.06384.3998.34627.7699c.29564.3875.75241.8465 1.43406 1.5282l.17158.1716c.29289.2929.29289.7677 0 1.0606-.2929.2929-.76777.2929-1.06066 0l-.20835-.2083c-.63534-.6353-1.16513-1.1651-1.52916-1.6422-.38424-.5036-.65374-1.0357-.65374-1.6798s.2695-1.1762.65374-1.6798c.36403-.47712.89382-1.00689 1.52916-1.64219z"/></g></svg>