<svg viewBox="0 0 512 512" xmlns="http://www.w3.org/2000/svg"><g fill="#a6c1ee"><path d="m320 79.607419h-234.666661v234.666671h42.666661v-42.66667-22.4-126.93333h174.29333l81.70667 81.70666v45.22667 22.4 42.66667h42.66666v-128z" fill-rule="evenodd"/><g stroke-width="15.3303"><path d="m68.828369 398.4896v-66.92086h33.505341 33.41552v8.35388 8.35388h-25.06164-25.151462v50.2131 50.21311h25.151462 25.06164v-50.21311-50.2131h8.35388 8.35388v50.2131 50.21311h-8.35388-8.35388v8.35388 8.35388h-33.41552-33.505341z"/><path d="m185.87251 339.92262v-8.35388h25.15146 25.06164v8.35388 8.35388h-25.06164-25.15146v50.2131 50.21311h25.15146 25.06164v-50.21311-50.2131h8.35388 8.35388v50.2131 50.21311h-8.35388-8.35388v8.35388 8.35388h-25.06164-25.15146v-8.35388-8.35388h-8.35388-8.35388v-50.21311-50.2131h8.35388 8.35388z"/><path d="m286.20889 339.92262v-8.35388h25.15146 25.06164v8.35388 8.35388h-25.06164-25.15146zm50.2131 108.78009v8.35388 8.35388h-25.06164-25.15146v-8.35388-8.35388h-8.35388-8.35388v-50.21311-50.2131h8.35388 8.35388v50.2131 50.21311h25.15146zm0 0v-8.35388-8.35388h8.35388 8.35388v8.35388 8.35388h-8.35388zm0-100.42621h8.35388 8.35388v8.35388 8.44371h-8.35388-8.35388v-8.44371z"/><path d="m386.54528 339.92262v-8.35388h25.15147 25.06163v8.35388 8.35388h-25.06163-25.15147zm0 108.78009h25.15147 25.06163v-25.06164-25.15147h-25.06163-25.15147v-8.35387-8.35388h-8.35388-8.35388v-16.70776-16.79759h8.35388 8.35388v16.79759 16.70776h25.15147 25.06163v8.35388 8.35387h8.35388 8.35388v25.15147 25.06164h-8.35388-8.35388v8.35388 8.35388h-25.06163-25.15147v-8.35388zm0 0h-8.35388-8.35388v-8.35388-8.35388h8.35388 8.35388v8.35388zm50.2131-100.42621h8.35388 8.35388v8.35388 8.44371h-8.35388-8.35388v-8.44371z"/></g></g></svg>
