<svg viewBox="0 0 512 512" xmlns="http://www.w3.org/2000/svg"><g fill="#a6c1ee"><path d="m378.625 209.465c-6.531-38.344-13.672-80-15.844-91.844-5.313-28.906-43.375-45.063-71.656-24.234-14.828 10.938-28.094 11.719-35.125 11.719s-14.828 1.563-35.125-11.719c-29.391-19.219-66.344-4.672-71.656 24.234-2.172 11.844-9.313 53.5-15.844 91.844-79.469 9.953-133.375 29.313-133.375 51.547 0 32.438 114.625 58.719 256 58.719 141.391 0 256-26.281 256-58.719 0-22.234-53.906-41.594-133.375-51.547z"/><path d="m109.125 330.45 7.547 86.515c39.563 6.719 79.734 10.219 119.703 11.078l19.625-26.765 19.625 26.765c39.969-.859 80.141-4.359 119.703-11.078l7.547-86.515c-48.375 9.359-97.906 13.5-146.875 13.5-48.984 0-98.484-4.141-146.875-13.5zm77.563 71.547c-33.469-1.578-35.563-41.766-35.563-41.766l75.125 14.672s-6.094 28.687-39.562 27.094zm174.187-41.766s-2.094 40.188-35.563 41.766c-33.469 1.594-39.563-27.094-39.563-27.094z"/></g></svg>