<svg fill="none" viewBox="0 0 372 61" xmlns="http://www.w3.org/2000/svg" xmlns:xlink="http://www.w3.org/1999/xlink"><linearGradient id="a" gradientUnits="userSpaceOnUse" x1="5.47404" x2="58.7991" y1="61.1147" y2="1.10951"><stop offset=".08" stop-color="#9945ff"/><stop offset=".3" stop-color="#8752f3"/><stop offset=".5" stop-color="#5497d5"/><stop offset=".6" stop-color="#43b4ca"/><stop offset=".72" stop-color="#28e0b9"/><stop offset=".97" stop-color="#19fb9b"/></linearGradient><clipPath id="b"><path d="m0 1.62671h64.8493v58.1032h-64.8493z"/></clipPath><g fill="#fff"><path d="m115.85 5.93643h-20.0631v5.01587h14.7301c2.967 0 5.333 2.402 5.333 5.3338v4.3801c0 2.9671-2.366 5.3337-5.333 5.3337h-19.746v-5.0158h20.064v-5.0159h-14.7302c-2.9672 0-5.3338-2.402-5.3338-5.3338v-4.38006c0-2.96714 2.3666-5.333784 5.3338-5.333784h19.7452z"/><path d="m140.172.920556c2.967 0 5.369 2.366644 5.369 5.333784v14.41186c0 2.9671-2.402 5.3337-5.369 5.3337h-15.436c-2.967 0-5.334-2.3666-5.334-5.3337v-14.41186c0-2.96714 2.367-5.333784 5.334-5.333784zm.318 5.015874h-16.072v15.04767h16.072z"/><path d="m154.472 20.8074h19.569v5.4045h-21.511c-1.908 0-3.462-1.5542-3.462-3.4617v-22.041582h5.404z"/><path d="m199.355.920556c2.402 0 4.345 1.907444 4.345 4.309414v20.76993h-5.051v-8.2302h-16.072v8.2302h-5.016v-20.76993c0-2.40197 1.907-4.309414 4.309-4.309414zm-.706 5.015874h-16.072v6.81737h16.072z"/><path d="m228.315.920556h5.051v21.829644c0 1.8015-1.484 3.2497-3.285 3.2497h-3.886c-1.236.0354-2.331-.6358-2.896-1.7308l-9.749-18.33267h-1.307v20.06347h-5.016v-21.7943c0-1.8368 1.448-3.285044 3.249-3.285044h4.098c1.201 0 2.331.635814 2.896 1.730834l9.75 18.33271h1.095z"/><path d="m258.687.920556c2.402 0 4.345 1.907444 4.345 4.309414v20.76993h-5.052v-8.2302h-16.072v8.2302h-5.015v-20.76993c0-2.40197 1.907-4.309414 4.309-4.309414zm-.707 5.015874h-16.072v6.81737h16.072z"/><path d="m115.356 38.9364h-19.5691v5.0159h19.5691v5.0159h-19.5691v10.0317h-5.0159v-25.0793h24.585z"/><path d="m139.655 33.9206c2.967 0 5.369 2.3666 5.369 5.3337v14.4119c0 2.9671-2.402 5.3337-5.369 5.3337h-15.437c-2.967 0-5.333-2.3666-5.333-5.3337v-14.4119c0-2.9671 2.366-5.3337 5.333-5.3337zm.317 5.0158h-16.072v15.0477h16.072z"/><path d="m169.638 33.9206h5.052v16.6724c-.036 4.6627-3.78 8.4069-8.443 8.4069h-9.29c-4.662 0-8.407-3.7442-8.407-8.4069v-16.6724h5.016v15.6481c0 2.4373 1.978 4.4154 4.416 4.4154h7.241c2.437 0 4.415-1.9781 4.415-4.4154z"/><path d="m199.304 33.9206h5.051v21.8296c0 1.8015-1.483 3.2497-3.285 3.2497h-3.885c-1.237.0354-2.332-.6358-2.897-1.7308l-9.749-18.3327h-1.307v20.0635h-5.016v-21.7943c0-1.8368 1.449-3.285 3.25-3.285h4.098c1.2 0 2.331.6358 2.896 1.7308l9.749 18.3327h1.095z"/><path d="m225.579 33.9206c4.663 0 8.407 3.7795 8.442 8.4068v8.2656c-.035 4.6627-3.779 8.4069-8.442 8.4069h-17.697v-25.0793zm3.391 9.4665c0-2.4726-1.978-4.4507-4.415-4.4507h-11.657v15.0477h11.657c2.437 0 4.415-1.9781 4.415-4.4154z"/><path d="m259.342 33.9206c2.402 0 4.345 1.9074 4.345 4.3094v20.7699h-5.051v-8.2302h-16.072v8.2302h-5.016v-20.7699c0-2.402 1.907-4.3094 4.309-4.3094zm-.706 5.0158h-16.072v6.8174h16.072z"/><path d="m267.214 33.9206h25.079v5.0158h-10.031v20.0635h-5.016v-20.0635h-10.032z"/><path d="m300.861 58.9999h-5.016v-25.0793h5.016z"/><path d="m325.17 33.9206c2.967 0 5.369 2.3666 5.369 5.3337v14.4119c0 2.9671-2.402 5.3337-5.369 5.3337h-15.437c-2.967 0-5.333-2.3666-5.333-5.3337v-14.4119c0-2.9671 2.366-5.3337 5.333-5.3337zm.318 5.0158h-16.072v15.0477h16.072z"/><path d="m355.153 33.9206h5.052v21.8296c0 1.8015-1.484 3.2497-3.285 3.2497h-3.886c-1.236.0354-2.331-.6358-2.896-1.7308l-9.75-18.3327h-1.307v20.0635h-5.015v-21.7943c0-1.8368 1.448-3.285 3.249-3.285h4.098c1.201 0 2.331.6358 2.896 1.7308l9.749 18.3327h1.095z"/></g><g clip-path="url(#b)"><path d="m64.5151 47.4369-10.7051 11.5017c-.2327.2498-.5143.449-.8272.5852-.3129.1361-.6504.2063-.9915.2061h-50.74849c-.24215 0-.479018-.0709-.68151-.2039s-.361783-.3224-.458301-.5449c-.09651903-.2225-.126061-.4683-.0849965-.7074s.1509465-.4609.3161455-.6383l10.713352-11.5016c.2321-.2492.5128-.448.8247-.5841s.6483-.2067.9885-.2073h50.7457c.2422.0001.4791.0709.6816.204.2025.133.3617.3224.4583.5448.0965.2225.126.4684.085.7075-.0411.239-.151.4609-.3162.6382zm-10.7051-23.161c-.2327-.2499-.5143-.4491-.8272-.5852s-.6504-.2063-.9915-.2061h-50.74849c-.24215 0-.479018.0709-.68151.2039s-.361783.3224-.458301.5449c-.09651903.2224-.126061.4683-.0849965.7074s.1509465.4609.3161455.6383l10.713352 11.5016c.2321.2492.5128.448.8247.5841s.6483.2067.9885.2072h50.7457c.2422 0 .4791-.0708.6816-.2039.2025-.133.3617-.3224.4583-.5449.0965-.2224.126-.4683.085-.7074-.0411-.239-.151-.4609-.3162-.6382zm-52.56719-8.2617h50.74849c.3411.0001.6786-.07.9915-.2062.3129-.1361.5945-.3353.8272-.5851l10.7051-11.50171c.1652-.17736.2751-.3992.3162-.63827.041-.23907.0115-.48494-.085-.70742-.0966-.22248-.2558-.41186-.4583-.54489-.2025-.13302-.4394-.20389-.6816-.2039h-50.7457c-.3402.00058-.6766.07111-.9885.20722s-.5926.33491-.8247.58409l-10.71059 11.50168c-.16504.1772-.2748731.3988-.3160308.6376s-.01185013.4844.0843288.7068c.096178.2224.255046.4118.457121.545.202074.1333.438571.2045.680481.2051z" fill="url(#a)"/></g></svg>