<svg height="500" viewBox="0 0 132.29166 132.29167" width="500" xmlns="http://www.w3.org/2000/svg" xmlns:xlink="http://www.w3.org/1999/xlink"><linearGradient id="a" gradientUnits="userSpaceOnUse" x1="-193.13052" x2="-96.116631" y1="62.047661" y2="62.047661"><stop offset="0" stop-color="#0060df"/><stop offset="1" stop-color="#2b2a56"/></linearGradient><g clip-rule="evenodd" fill="url(#a)" fill-rule="evenodd" stroke-width="4.40972" transform="translate(210.76941 4.098176)"><path d="m-140.21421 13.35123c4.70693.60572 9.1656 2.149255 13.22916 4.326555v13.689453c0 2.435446 1.97423 4.409723 4.40972 4.409723s4.40973-1.974277 4.40973-4.409723v-7.491412c5.43895 4.857132 9.52764 10.753416 11.63417 16.384146.0803 2.06816-.14376 4.205111-.54901 6.283854-.51418 2.638778-1.28985 5.01165-1.94161 6.730559-.32455.856368-.61515 1.542521-.82197 2.008629-.10363.232833-.18565.410545-.24033.526521l-.0604.127-.0154.03131c-.59399 1.199444-.10407 2.65333 1.09493 3.248642 1.19989.595754 2.65509.105833 3.25085-1.094052l-2.13916-1.061861c2.13916 1.061861 2.14048 1.059215 2.14092 1.058774l.003-.0053.007-.01499.0238-.04895.0825-.172862c.0697-.147284.16712-.35851.28663-.627062.23812-.537104.56356-1.30616.92384-2.256014.7179-1.893976 1.58573-4.539368 2.16693-7.522545.10054-.515938.19359-1.04775.27605-1.592792 3.778251 4.940212 5.926227 10.059459 5.926227 14.482851 0 14.064368-21.717437 15.764757-48.506947 15.764757-26.7895 0-48.50694-1.700389-48.50694-15.764757 0-4.14558 1.88648-8.901906 5.23346-13.549753-.14376 3.955079.6447 8.120503 3.30773 11.790274.79507 1.095375 2.31025 1.353785 3.38446.577673 1.07465-.776552 1.30087-2.293937.5058-3.389312-3.1631-4.35857-2.75476-10.160882-1.16064-15.419035.77567-2.559843 1.78461-4.823266 2.60482-6.452482.40878-.811521.76641-1.457942 1.01865-1.89618.12611-.218943.22577-.38541.29148-.493977l.0732-.118666.0181-.02928c.0207-.03237.0401-.06509.0591-.09812 1.89486-2.608395 4.1544-5.122642 6.71248-7.407054v7.491456c0 2.435446 1.97423 4.409723 4.40972 4.409723s4.40972-1.974277 4.40972-4.409723v-13.689487c4.06356-2.177256 8.52223-3.720791 13.22917-4.326511v9.196564c0 2.435445 1.97423 4.409722 4.40972 4.409722s4.40973-1.974277 4.40973-4.409722z"/><path d="m-175.49199 71.05659c0 17.047986 13.82007 30.86806 30.86805 30.86806 17.04799 0 30.86806-13.820074 30.86806-30.86806h8.81944c0 21.918965-17.76853 39.6875-39.6875 39.6875-21.91896 0-39.6875-17.768535-39.6875-39.6875z"/></g></svg>