<svg height="500" viewBox="0 0 132.29166 132.29167" width="500" xmlns="http://www.w3.org/2000/svg" xmlns:xlink="http://www.w3.org/1999/xlink"><linearGradient id="a"><stop offset="0" stop-color="#0060df"/><stop offset="1" stop-color="#2b2a56"/></linearGradient><linearGradient id="b" gradientUnits="userSpaceOnUse" x1="92.568024" x2="105" xlink:href="#a" y1="97.318153" y2="97.318153"/><linearGradient id="c" gradientUnits="userSpaceOnUse" x1="81.320091" x2="105" xlink:href="#a" y1="103.23496" y2="103.23496"/><g stroke-width="1.184" transform="matrix(4.4589634 0 0 4.4589634 -349.25142 -394.17544)"><path d="m90.827531 91.394938c-4.48866 0-6.733289-.000139-8.120435 1.386996-1.387134 1.387145-1.386995 3.619653-1.386995 8.084776v4.73615c0 4.46508-.000139 6.69772 1.386995 8.08477 1.387146 1.38716 3.619645 1.38752 8.084778 1.38752h4.736145c4.465087 0 6.697731-.00035 8.084781-1.38752 1.38717-1.38704 1.38699-3.61969 1.38699-8.08477v-.51728c0-1.03339.00028-1.80962-.0501-2.44223h-4.68551-.11265c-1.298964.00012-2.446476-.0001-3.371888-.12454-1.002963-.13486-2.006255-.44449-2.824633-1.26298-.818497-.81842-1.128115-1.821125-1.262972-2.824112-.124438-.925317-.124142-2.073441-.124024-3.372404l.01085-3.355868c.000355-.09761.009-.194234.02481-.288871-.483781-.01973-1.058617-.01964-1.776119-.01964zm-2.810681 11.839592c1.525532 0 2.523857 1.65693 2.611727 3.76152.267563-.0519.546869-.0796.83044-.0796.519095 0 .850594.2554.850594.65474 0 .3235-.179317.64692-.179317.79065 0 .0479.02766.0682.06356.0682.275526 0 1.361847-1.34978 2.056722-1.34978.794642 0 .383602 1.3255.814937 1.3255.135782 0 .251413-.11576.391191-.11576.159739 0 .255798.12422.255798.27595 0 .12381-.06797.21942-.163814.28732-.163729.10393-.37523.1478-.538985.1478-1.006389 0-.639316-1.24592-.934827-1.24592-.32346 0-1.301863 1.38544-2.112533 1.38544-.291488 0-.515214-.18327-.515214-.48679 0-.34745.187586-.61942.187586-.96686 0-.10383-.07985-.1633-.219625-.1633-.271607 0-.534918.0278-.786515.0837-.02797.83067-.163945 1.59763-.387574 2.25257h5.331458c.13976 0 .251664.10367.251664.2434s-.111902.24753-.251664.24753h-5.530929c-.479228 1.03034-1.221911 1.67741-2.140437 1.67741-.754774 0-1.114144-.4593-1.114144-1.10225 0-.17971.02766-.37549.07958-.57516h-2.647383c-.139784 0-.251664-.1078-.251664-.24753 0-.13972.111885-.24392.251664-.24392h2.827217c.223629-.49919.586955-1.02229 1.0542-1.48156-1.054285-.73881-1.90066-1.85294-1.90066-3.15485 0-1.11419.790605-1.9885 1.816944-1.9885zm0 .60719c-.682891 0-1.210262.60257-1.210262 1.38131 0 1.242.898954 2.19275 1.72961 2.76779.435294-.34742.938205-.63928 1.489315-.83095-.03595-1.82906-.81059-3.31815-2.008663-3.31815zm-3.731555 3.36104c.06539 0 .131094.0272.185001.0811l.499195.49506.499194-.49506c.103833-.10388.263589-.10788.367419 0 .103829.10385.103829.25941 0 .36329l-.499194.49919.499194.49558c.103829.10383.103829.26354 0 .36742-.103831.10388-.263589.10388-.367419 0l-.499194-.4992-.499195.4992c-.107813.0999-.263589.10388-.367419 0-.103829-.10383-.103829-.25954 0-.36742l.499194-.49558-.499194-.49919c-.103829-.0999-.103829-.25941 0-.36329.05192-.0539.117025-.0811.182418-.0811zm5.728332.59221c-.343447.13577-.662801.31568-.950329.51935.0599.0319.115635.0599.171565.0879.115802.0559.163815.15176.163815.25166 0 .13582-.115831.26355-.27957.26355-.04791 0-.09587-.0122-.147795-.0362-.123795-.06-.247599-.11969-.367419-.18759-.395362.36341-.70703.77444-.914673 1.16582h1.901176c.227631-.58306.37529-1.29372.42323-2.06447zm-2.528011 2.55592c-.05192.16374-.07596.31967-.07596.4594 0 .35942.17576.61082.559139.61082.55111 0 1.034279-.40729 1.393713-1.07022z" fill="url(#c)"/><path d="m92.57892 91.702953-.01089 3.355922c-.000118 1.298963-.000237 2.446932.124201 3.372249.134858 1.002988.444473 2.005826 1.26297 2.824316.818498.81838 1.821225 1.128 2.824308 1.26286.925294.12443 2.073179.12431 3.372141.1242h4.79791c.0147.18423.0251.38053.0324.59188h.01804c0-.31672 0-.47502-.0117-.6615-.067-1.05909-.50723-2.27274-1.13498-3.128443-.11047-.15064-.18613-.241062-.3372-.421918-.93832-1.123128-2.17347-2.52221-3.25209-3.48409-.959985-.856125-2.274814-1.792773-3.421634-2.558654-.985086-.658006-1.477747-.987015-2.153218-1.231546-.17902-.06482-.415227-.136432-.600168-.181957-.454655-.111923-.897233-.150853-1.520963-.164339z" fill="url(#b)"/></g></svg>