<svg viewBox="0 0 507.733 507.733" xmlns="http://www.w3.org/2000/svg"><g transform="translate(1 1)"><path d="m39.533 310.467c25.6 0 34.133 68.267 34.133 102.4 0 18.773-15.36 34.133-34.133 34.133s-34.133-15.36-34.133-34.133c0-34.134 8.533-102.4 34.133-102.4zm443.734 153.6c9.387 0 17.067 7.68 17.067 17.067s-7.68 17.067-17.067 17.067h-68.267c-9.387 0-17.067-7.68-17.067-17.067s7.68-17.067 17.067-17.067c3.413 0 6.827.853 9.387 2.56.853-5.12 4.267-10.24 7.68-13.653 4.267-4.267 10.24-5.973 17.067-5.973 11.947 0 22.187 8.533 24.747 19.627 2.559-1.708 5.972-2.561 9.386-2.561z" fill="#a6c1ee"/><path d="m432.067 452.973c-3.413 3.413-6.827 8.533-7.68 13.653-2.56-1.707-5.973-2.56-9.387-2.56-9.387 0-17.067 7.68-17.067 17.067v-51.2-68.267-68.266-68.267-68.267-68.266h-51.2-51.2-51.2-51.2-51.2v68.267 68.267 68.266 68.267 68.267 68.266h-34.133v-443.733h68.267 187.733 68.267zm-68.267-432.64v34.133h-187.733v-34.133h68.267v-17.066h51.2v17.067h68.266z" fill="#a6c1ee"/><path d="m141.933 88.6h256v418.133h-256z" fill="#749ee4"/></g><path d="m484.267 503.467c-2.56 0-4.267-1.707-4.267-4.267s1.707-4.267 4.267-4.267c6.827 0 12.8-5.973 12.8-12.8s-5.973-12.8-12.8-12.8c-2.56 0-5.12.853-6.827 1.707-.853.853-2.56.853-4.267 0s-2.56-1.707-2.56-3.413c-2.56-9.387-11.093-16.213-20.48-16.213s-18.773 6.827-20.48 16.213c0 1.707-.853 2.56-2.56 3.413s-2.56 0-4.267 0c-1.707-1.707-4.267-1.707-6.827-1.707-6.827 0-12.8 5.973-12.8 12.8s5.973 12.8 12.8 12.8c2.56 0 4.267 1.707 4.267 4.267s-1.707 4.267-4.267 4.267h-273.066c-2.56 0-4.267-1.707-4.267-4.267v-409.6c0-2.56 1.707-4.267 4.267-4.267h256c2.56 0 4.267 1.707 4.267 4.267v349.867c0 2.56-1.707 4.267-4.267 4.267s-4.267-1.707-4.267-4.267v-4.267h-42.666v59.733h46.933c-2.56-3.413-4.267-7.68-4.267-12.8 0-11.947 9.387-21.333 21.333-21.333 2.56 0 4.267 0 6.827.853 4.267-11.093 15.36-17.92 27.307-17.92s23.04 6.827 27.307 17.92c2.56-.853 4.267-.853 6.827-.853 11.947 0 21.333 9.387 21.333 21.333s-9.387 21.334-21.333 21.334zm-183.467-8.534h42.667v-59.733h-42.667zm-51.2 0h42.667v-59.733h-42.667zm-51.2 0h42.667v-59.733h-42.667zm-51.2 0h42.667v-59.733h-42.667zm204.8-68.266h42.667v-59.733h-42.667zm-51.2 0h42.667v-59.733h-42.667zm-51.2 0h42.667v-59.733h-42.667zm-51.2 0h42.667v-59.733h-42.667zm-51.2 0h42.667v-59.733h-42.667zm204.8-68.267h42.667v-59.733h-42.667zm-51.2 0h42.667v-59.733h-42.667zm-51.2 0h42.667v-59.733h-42.667zm-51.2 0h42.667v-59.733h-42.667zm-51.2 0h42.667v-59.733h-42.667zm204.8-68.267h42.667v-59.733h-42.667zm-51.2 0h42.667v-59.733h-42.667zm-51.2 0h42.667v-59.733h-42.667zm-51.2 0h42.667v-59.733h-42.667zm-51.2 0h42.667v-59.733h-42.667zm204.8-68.266h42.667v-59.733h-42.667zm-51.2 0h42.667v-59.733h-42.667zm-51.2 0h42.667v-59.733h-42.667zm-51.2 0h42.667v-59.733h-42.667zm-51.2 0h42.667v-59.733h-42.667zm204.8-68.267h42.667v-59.733h-42.667zm-51.2 0h42.667v-59.733h-42.667zm-51.2 0h42.667v-59.733h-42.667zm-51.2 0h42.667v-59.733h-42.667zm-51.2 0h42.667v-59.733h-42.667zm-38.4 349.867h-102.4c-2.56 0-4.267-1.707-4.267-4.267s1.707-4.267 4.267-4.267h29.867v-42.667c-18.773-2.56-34.133-18.773-34.133-38.4-.001-29.866 6.826-106.666 38.399-106.666s38.4 76.8 38.4 106.667c0 19.627-15.36 35.84-34.133 38.4v42.667h59.733v-439.467c0-2.56 1.707-4.267 4.267-4.267h64v-29.867c0-2.56 1.707-4.267 4.267-4.267h64v-12.8c0-2.56 1.707-4.267 4.267-4.267h51.2c2.56 0 4.267 1.707 4.267 4.267v12.8h64c2.56 0 4.267 1.707 4.267 4.267v29.867h64c2.56 0 4.267 1.707 4.267 4.267v362.667c0 2.56-1.707 4.267-4.267 4.267s-4.267-1.707-4.267-4.267v-358.4h-217.601c-2.56 0-4.267-1.707-4.267-4.267s1.707-4.267 4.267-4.267h149.333v-25.6h-64c-2.56 0-4.267-1.707-4.267-4.267v-12.8h-42.666v12.8c0 2.56-1.707 4.267-4.267 4.267h-64v29.867c0 2.56-1.707 4.267-4.267 4.267h-64v439.466c.001 2.56-1.706 4.267-4.266 4.267zm-68.267-187.734c-19.627 0-29.867 58.027-29.867 98.133 0 16.213 13.653 29.867 29.867 29.867s29.867-13.653 29.867-29.866c0-40.107-10.24-98.134-29.867-98.134z" fill="#51565f"/></svg>